<?xml version="1.0" encoding="UTF-8" standalone="no"?>
<!DOCTYPE svg PUBLIC "-//W3C//DTD SVG 1.1//EN"
 "http://www.w3.org/Graphics/SVG/1.1/DTD/svg11.dtd">
<!-- Generated by graphviz version 11.0.0 (20240428.1522)
 -->
<!-- Title: BinaryClassification Pages: 1 -->
<svg width="631pt" height="98pt"
 viewBox="0.00 0.00 630.50 98.00" xmlns="http://www.w3.org/2000/svg" xmlns:xlink="http://www.w3.org/1999/xlink">
<g id="graph0" class="graph" transform="scale(1 1) rotate(0) translate(4 94)">
<title>BinaryClassification</title>
<polygon fill="white" stroke="none" points="-4,4 -4,-94 626.5,-94 626.5,4 -4,4"/>
<!-- Data_Augmentation -->
<g id="node1" class="node">
<title>Data_Augmentation</title>
<polygon fill="none" stroke="black" points="390.75,-63 251.75,-63 251.75,-27 390.75,-27 390.75,-63"/>
<text text-anchor="start" x="259.75" y="-40.95" font-family="Times New Roman,serif" font-weight="bold" font-size="14.00">Data_Augmentation</text>
</g>
<!-- Model_Training -->
<g id="node3" class="node">
<title>Model_Training</title>
<polygon fill="none" stroke="black" points="542.5,-63 426.75,-63 426.75,-27 542.5,-27 542.5,-63"/>
<text text-anchor="start" x="434.75" y="-40.95" font-family="Times New Roman,serif" font-weight="bold" font-size="14.00">Model_Training</text>
</g>
<!-- Data_Augmentation&#45;&gt;Model_Training -->
<g id="edge3" class="edge">
<title>Data_Augmentation&#45;&gt;Model_Training</title>
<path fill="none" stroke="black" d="M391.16,-45C399.1,-45 407.2,-45 415.13,-45"/>
<polygon fill="black" stroke="black" points="415.1,-48.5 425.1,-45 415.1,-41.5 415.1,-48.5"/>
</g>
<!-- SplitData -->
<g id="node2" class="node">
<title>SplitData</title>
<polygon fill="none" stroke="black" points="215.75,-63 142,-63 142,-27 215.75,-27 215.75,-63"/>
<text text-anchor="start" x="150" y="-40.95" font-family="Times New Roman,serif" font-weight="bold" font-size="14.00">SplitData</text>
</g>
<!-- SplitData&#45;&gt;Data_Augmentation -->
<g id="edge2" class="edge">
<title>SplitData&#45;&gt;Data_Augmentation</title>
<path fill="none" stroke="black" d="M216.03,-45C223.51,-45 231.67,-45 240.03,-45"/>
<polygon fill="black" stroke="black" points="239.99,-48.5 249.99,-45 239.99,-41.5 239.99,-48.5"/>
</g>
<!-- END -->
<g id="node6" class="node">
<title>END</title>
<ellipse fill="black" stroke="black" cx="600.5" cy="-45" rx="18" ry="18"/>
<ellipse fill="none" stroke="black" cx="600.5" cy="-45" rx="22" ry="22"/>
</g>
<!-- Model_Training&#45;&gt;END -->
<g id="edge4" class="edge">
<title>Model_Training&#45;&gt;END</title>
<path fill="none" stroke="black" d="M542.9,-45C551.08,-45 559.26,-45 566.76,-45"/>
<polygon fill="black" stroke="black" points="566.72,-48.5 576.72,-45 566.72,-41.5 566.72,-48.5"/>
</g>
<!-- I2Cat_Dataset -->
<g id="node4" class="node">
<title>I2Cat_Dataset</title>
<polygon fill="none" stroke="black" stroke-dasharray="5,2" points="106,-90 0,-90 0,-54 106,-54 106,-90"/>
<text text-anchor="start" x="8" y="-67.95" font-family="Times New Roman,serif" font-weight="bold" font-size="14.00">I2Cat_Dataset</text>
</g>
<!-- I2Cat_Dataset&#45;&gt;SplitData -->
<g id="edge5" class="edge">
<title>I2Cat_Dataset&#45;&gt;SplitData</title>
<path fill="none" stroke="black" stroke-dasharray="5,2" d="M106.18,-60.63C114.26,-58.86 122.58,-57.05 130.56,-55.31"/>
<polygon fill="black" stroke="black" points="131.04,-58.79 140.06,-53.24 129.55,-51.95 131.04,-58.79"/>
</g>
<!-- START -->
<g id="node5" class="node">
<title>START</title>
<ellipse fill="black" stroke="black" cx="53" cy="-18" rx="18" ry="18"/>
</g>
<!-- START&#45;&gt;SplitData -->
<g id="edge1" class="edge">
<title>START&#45;&gt;SplitData</title>
<path fill="none" stroke="black" d="M70.96,-21.7C86.3,-25.04 109.61,-30.12 130.56,-34.69"/>
<polygon fill="black" stroke="black" points="129.57,-38.05 140.08,-36.76 131.06,-31.21 129.57,-38.05"/>
</g>
</g>
</svg>
