<?xml version="1.0" encoding="UTF-8" standalone="no"?>
<!DOCTYPE svg PUBLIC "-//W3C//DTD SVG 1.1//EN"
 "http://www.w3.org/Graphics/SVG/1.1/DTD/svg11.dtd">
<!-- Generated by graphviz version 12.0.0 (20240704.0754)
 -->
<!-- Title: BinaryClassification Pages: 1 -->
<svg width="601pt" height="52pt"
 viewBox="0.00 0.00 600.50 52.00" xmlns="http://www.w3.org/2000/svg" xmlns:xlink="http://www.w3.org/1999/xlink">
<g id="graph0" class="graph" transform="scale(1 1) rotate(0) translate(4 48)">
<title>BinaryClassification</title>
<polygon fill="white" stroke="none" points="-4,4 -4,-48 596.5,-48 596.5,4 -4,4"/>
<!-- ReadData -->
<g id="node1" class="node">
<title>ReadData</title>
<polygon fill="none" stroke="black" points="150.25,-40 72,-40 72,-4 150.25,-4 150.25,-40"/>
<text text-anchor="start" x="80" y="-17.95" font-family="Times New Roman,serif" font-weight="bold" font-size="14.00">ReadData</text>
</g>
<!-- AddPadding -->
<g id="node2" class="node">
<title>AddPadding</title>
<polygon fill="none" stroke="black" points="277.25,-40 186.25,-40 186.25,-4 277.25,-4 277.25,-40"/>
<text text-anchor="start" x="194.25" y="-17.95" font-family="Times New Roman,serif" font-weight="bold" font-size="14.00">AddPadding</text>
</g>
<!-- ReadData&#45;&gt;AddPadding -->
<g id="edge2" class="edge">
<title>ReadData&#45;&gt;AddPadding</title>
<path fill="none" stroke="black" d="M150.64,-22C158.27,-22 166.43,-22 174.51,-22"/>
<polygon fill="black" stroke="black" points="174.31,-25.5 184.31,-22 174.31,-18.5 174.31,-25.5"/>
</g>
<!-- SplitData -->
<g id="node3" class="node">
<title>SplitData</title>
<polygon fill="none" stroke="black" points="387,-40 313.25,-40 313.25,-4 387,-4 387,-40"/>
<text text-anchor="start" x="321.25" y="-17.95" font-family="Times New Roman,serif" font-weight="bold" font-size="14.00">SplitData</text>
</g>
<!-- AddPadding&#45;&gt;SplitData -->
<g id="edge3" class="edge">
<title>AddPadding&#45;&gt;SplitData</title>
<path fill="none" stroke="black" d="M277.74,-22C285.56,-22 293.72,-22 301.61,-22"/>
<polygon fill="black" stroke="black" points="301.38,-25.5 311.38,-22 301.38,-18.5 301.38,-25.5"/>
</g>
<!-- TrainModel -->
<g id="node4" class="node">
<title>TrainModel</title>
<polygon fill="none" stroke="black" points="512.5,-40 423,-40 423,-4 512.5,-4 512.5,-40"/>
<text text-anchor="start" x="431" y="-17.95" font-family="Times New Roman,serif" font-weight="bold" font-size="14.00">TrainModel</text>
</g>
<!-- SplitData&#45;&gt;TrainModel -->
<g id="edge4" class="edge">
<title>SplitData&#45;&gt;TrainModel</title>
<path fill="none" stroke="black" d="M387.39,-22C395.04,-22 403.28,-22 411.46,-22"/>
<polygon fill="black" stroke="black" points="411.39,-25.5 421.39,-22 411.39,-18.5 411.39,-25.5"/>
</g>
<!-- END -->
<g id="node6" class="node">
<title>END</title>
<ellipse fill="black" stroke="black" cx="570.5" cy="-22" rx="18" ry="18"/>
<ellipse fill="none" stroke="black" cx="570.5" cy="-22" rx="22" ry="22"/>
</g>
<!-- TrainModel&#45;&gt;END -->
<g id="edge5" class="edge">
<title>TrainModel&#45;&gt;END</title>
<path fill="none" stroke="black" d="M512.94,-22C520.99,-22 529.25,-22 536.89,-22"/>
<polygon fill="black" stroke="black" points="536.75,-25.5 546.75,-22 536.75,-18.5 536.75,-25.5"/>
</g>
<!-- START -->
<g id="node5" class="node">
<title>START</title>
<ellipse fill="black" stroke="black" cx="18" cy="-22" rx="18" ry="18"/>
</g>
<!-- START&#45;&gt;ReadData -->
<g id="edge1" class="edge">
<title>START&#45;&gt;ReadData</title>
<path fill="none" stroke="black" d="M36.14,-22C43.09,-22 51.52,-22 60.16,-22"/>
<polygon fill="black" stroke="black" points="60.02,-25.5 70.02,-22 60.02,-18.5 60.02,-25.5"/>
</g>
</g>
</svg>
