<?xml version="1.0" encoding="UTF-8" standalone="no"?>
<!DOCTYPE svg PUBLIC "-//W3C//DTD SVG 1.1//EN"
 "http://www.w3.org/Graphics/SVG/1.1/DTD/svg11.dtd">
<!-- Generated by graphviz version 12.0.0 (20240704.0754)
 -->
<!-- Title: BinaryClassification Pages: 1 -->
<svg width="727pt" height="98pt"
 viewBox="0.00 0.00 726.75 98.00" xmlns="http://www.w3.org/2000/svg" xmlns:xlink="http://www.w3.org/1999/xlink">
<g id="graph0" class="graph" transform="scale(1 1) rotate(0) translate(4 94)">
<title>BinaryClassification</title>
<polygon fill="white" stroke="none" points="-4,4 -4,-94 722.75,-94 722.75,4 -4,4"/>
<!-- ReadData -->
<g id="node1" class="node">
<title>ReadData</title>
<polygon fill="none" stroke="black" points="276.5,-63 198.25,-63 198.25,-27 276.5,-27 276.5,-63"/>
<text text-anchor="start" x="206.25" y="-40.95" font-family="Times New Roman,serif" font-weight="bold" font-size="14.00">ReadData</text>
</g>
<!-- AddPadding -->
<g id="node2" class="node">
<title>AddPadding</title>
<polygon fill="none" stroke="black" points="403.5,-63 312.5,-63 312.5,-27 403.5,-27 403.5,-63"/>
<text text-anchor="start" x="320.5" y="-40.95" font-family="Times New Roman,serif" font-weight="bold" font-size="14.00">AddPadding</text>
</g>
<!-- ReadData&#45;&gt;AddPadding -->
<g id="edge2" class="edge">
<title>ReadData&#45;&gt;AddPadding</title>
<path fill="none" stroke="black" d="M276.89,-45C284.52,-45 292.68,-45 300.76,-45"/>
<polygon fill="black" stroke="black" points="300.56,-48.5 310.56,-45 300.56,-41.5 300.56,-48.5"/>
</g>
<!-- SplitData -->
<g id="node3" class="node">
<title>SplitData</title>
<polygon fill="none" stroke="black" points="513.25,-63 439.5,-63 439.5,-27 513.25,-27 513.25,-63"/>
<text text-anchor="start" x="447.5" y="-40.95" font-family="Times New Roman,serif" font-weight="bold" font-size="14.00">SplitData</text>
</g>
<!-- AddPadding&#45;&gt;SplitData -->
<g id="edge3" class="edge">
<title>AddPadding&#45;&gt;SplitData</title>
<path fill="none" stroke="black" d="M403.99,-45C411.81,-45 419.97,-45 427.86,-45"/>
<polygon fill="black" stroke="black" points="427.63,-48.5 437.63,-45 427.63,-41.5 427.63,-48.5"/>
</g>
<!-- TrainModel -->
<g id="node4" class="node">
<title>TrainModel</title>
<polygon fill="none" stroke="black" points="638.75,-63 549.25,-63 549.25,-27 638.75,-27 638.75,-63"/>
<text text-anchor="start" x="557.25" y="-40.95" font-family="Times New Roman,serif" font-weight="bold" font-size="14.00">TrainModel</text>
</g>
<!-- SplitData&#45;&gt;TrainModel -->
<g id="edge4" class="edge">
<title>SplitData&#45;&gt;TrainModel</title>
<path fill="none" stroke="black" d="M513.64,-45C521.29,-45 529.53,-45 537.71,-45"/>
<polygon fill="black" stroke="black" points="537.64,-48.5 547.64,-45 537.64,-41.5 537.64,-48.5"/>
</g>
<!-- END -->
<g id="node7" class="node">
<title>END</title>
<ellipse fill="black" stroke="black" cx="696.75" cy="-45" rx="18" ry="18"/>
<ellipse fill="none" stroke="black" cx="696.75" cy="-45" rx="22" ry="22"/>
</g>
<!-- TrainModel&#45;&gt;END -->
<g id="edge5" class="edge">
<title>TrainModel&#45;&gt;END</title>
<path fill="none" stroke="black" d="M639.19,-45C647.24,-45 655.5,-45 663.14,-45"/>
<polygon fill="black" stroke="black" points="663,-48.5 673,-45 663,-41.5 663,-48.5"/>
</g>
<!-- LG600B6_100636_IDK -->
<g id="node5" class="node">
<title>LG600B6_100636_IDK</title>
<polygon fill="none" stroke="black" stroke-dasharray="5,2" points="162.25,-90 0,-90 0,-54 162.25,-54 162.25,-90"/>
<text text-anchor="start" x="8" y="-67.95" font-family="Times New Roman,serif" font-weight="bold" font-size="14.00">LG600B6_100636_IDK</text>
</g>
<!-- LG600B6_100636_IDK&#45;&gt;ReadData -->
<g id="edge6" class="edge">
<title>LG600B6_100636_IDK&#45;&gt;ReadData</title>
<path fill="none" stroke="black" stroke-dasharray="5,2" d="M162.41,-57.95C170.77,-56.48 179.09,-55.03 186.95,-53.65"/>
<polygon fill="black" stroke="black" points="187.38,-57.13 196.63,-51.96 186.17,-50.23 187.38,-57.13"/>
</g>
<!-- START -->
<g id="node6" class="node">
<title>START</title>
<ellipse fill="black" stroke="black" cx="81.12" cy="-18" rx="18" ry="18"/>
</g>
<!-- START&#45;&gt;ReadData -->
<g id="edge1" class="edge">
<title>START&#45;&gt;ReadData</title>
<path fill="none" stroke="black" d="M99.22,-20.99C120.23,-24.67 156.78,-31.07 186.87,-36.33"/>
<polygon fill="black" stroke="black" points="186.09,-39.75 196.55,-38.03 187.3,-32.86 186.09,-39.75"/>
</g>
</g>
</svg>
