<?xml version="1.0" encoding="UTF-8" standalone="no"?>
<!DOCTYPE svg PUBLIC "-//W3C//DTD SVG 1.1//EN"
 "http://www.w3.org/Graphics/SVG/1.1/DTD/svg11.dtd">
<!-- Generated by graphviz version 11.0.0 (20240428.1522)
 -->
<!-- Title: BinaryClassification Pages: 1 -->
<svg width="561pt" height="52pt"
 viewBox="0.00 0.00 560.50 52.00" xmlns="http://www.w3.org/2000/svg" xmlns:xlink="http://www.w3.org/1999/xlink">
<g id="graph0" class="graph" transform="scale(1 1) rotate(0) translate(4 48)">
<title>BinaryClassification</title>
<polygon fill="white" stroke="none" points="-4,4 -4,-48 556.5,-48 556.5,4 -4,4"/>
<!-- Data_Augmentation -->
<g id="node1" class="node">
<title>Data_Augmentation</title>
<polygon fill="none" stroke="black" points="320.75,-40 181.75,-40 181.75,-4 320.75,-4 320.75,-40"/>
<text text-anchor="start" x="189.75" y="-17.95" font-family="Times New Roman,serif" font-weight="bold" font-size="14.00">Data_Augmentation</text>
</g>
<!-- Model_Training -->
<g id="node3" class="node">
<title>Model_Training</title>
<polygon fill="none" stroke="black" points="472.5,-40 356.75,-40 356.75,-4 472.5,-4 472.5,-40"/>
<text text-anchor="start" x="364.75" y="-17.95" font-family="Times New Roman,serif" font-weight="bold" font-size="14.00">Model_Training</text>
</g>
<!-- Data_Augmentation&#45;&gt;Model_Training -->
<g id="edge3" class="edge">
<title>Data_Augmentation&#45;&gt;Model_Training</title>
<path fill="none" stroke="black" d="M321.16,-22C329.1,-22 337.2,-22 345.13,-22"/>
<polygon fill="black" stroke="black" points="345.1,-25.5 355.1,-22 345.1,-18.5 345.1,-25.5"/>
</g>
<!-- SplitData -->
<g id="node2" class="node">
<title>SplitData</title>
<polygon fill="none" stroke="black" points="145.75,-40 72,-40 72,-4 145.75,-4 145.75,-40"/>
<text text-anchor="start" x="80" y="-17.95" font-family="Times New Roman,serif" font-weight="bold" font-size="14.00">SplitData</text>
</g>
<!-- SplitData&#45;&gt;Data_Augmentation -->
<g id="edge2" class="edge">
<title>SplitData&#45;&gt;Data_Augmentation</title>
<path fill="none" stroke="black" d="M146.03,-22C153.51,-22 161.67,-22 170.03,-22"/>
<polygon fill="black" stroke="black" points="169.99,-25.5 179.99,-22 169.99,-18.5 169.99,-25.5"/>
</g>
<!-- END -->
<g id="node5" class="node">
<title>END</title>
<ellipse fill="black" stroke="black" cx="530.5" cy="-22" rx="18" ry="18"/>
<ellipse fill="none" stroke="black" cx="530.5" cy="-22" rx="22" ry="22"/>
</g>
<!-- Model_Training&#45;&gt;END -->
<g id="edge4" class="edge">
<title>Model_Training&#45;&gt;END</title>
<path fill="none" stroke="black" d="M472.9,-22C481.08,-22 489.26,-22 496.76,-22"/>
<polygon fill="black" stroke="black" points="496.72,-25.5 506.72,-22 496.72,-18.5 496.72,-25.5"/>
</g>
<!-- START -->
<g id="node4" class="node">
<title>START</title>
<ellipse fill="black" stroke="black" cx="18" cy="-22" rx="18" ry="18"/>
</g>
<!-- START&#45;&gt;SplitData -->
<g id="edge1" class="edge">
<title>START&#45;&gt;SplitData</title>
<path fill="none" stroke="black" d="M36.14,-22C43.15,-22 51.65,-22 60.3,-22"/>
<polygon fill="black" stroke="black" points="60.15,-25.5 70.15,-22 60.15,-18.5 60.15,-25.5"/>
</g>
</g>
</svg>
